<svg width="24" height="25" viewBox="0 0 24 25" fill="none" xmlns="http://www.w3.org/2000/svg">
<g id="Icons/Comment" clip-path="url(#clip0_972_2697)">
<path id="Vector" fill-rule="evenodd" clip-rule="evenodd" d="M23.75 23.2048L22.35 17.7048C23.25 16.0548 23.75 14.1548 23.75 12.1548C23.75 5.65479 18.5 0.404785 12 0.404785C5.5 0.404785 0.25 5.65479 0.25 12.1548C0.25 18.6548 5.5 23.9048 12 23.9048C14 23.9048 15.9 23.4048 17.55 22.5048L23.05 23.9048C23.45 24.0048 23.85 23.6048 23.75 23.2048ZM22.25 12.1548C22.25 14.1548 21.75 15.6548 20.95 17.1548C20.85 17.3548 20.8 17.6048 20.85 17.8548L21.9 22.0548L17.75 21.0048C17.5 20.9548 17.25 20.9548 17.05 21.1048C16.15 21.6048 14.45 22.4048 12.05 22.4048C6.35 22.4048 1.75 17.8048 1.75 12.1548C1.75 6.50479 6.35 1.90479 12 1.90479C17.65 1.90479 22.25 6.50479 22.25 12.1548Z" fill="#262626"/>
</g>
<defs>
<clipPath id="clip0_972_2697">
<rect width="24" height="24" fill="white" transform="translate(0 0.154785)"/>
</clipPath>
</defs>
</svg>
