<svg width="24" height="25" viewBox="0 0 24 25" fill="none" xmlns="http://www.w3.org/2000/svg">
<g clip-path="url(#clip0_972_2307)">
<path d="M12 24.1548C5.4 24.1548 0 18.7548 0 12.1548C0 5.55479 5.4 0.154785 12 0.154785C18.6 0.154785 24 5.55479 24 12.1548C24 18.7548 18.6 24.1548 12 24.1548ZM12 1.65479C6.2 1.65479 1.5 6.35478 1.5 12.1548C1.5 17.9548 6.2 22.6548 12 22.6548C17.8 22.6548 22.5 17.9548 22.5 12.1548C22.5 6.35478 17.8 1.65479 12 1.65479Z" fill="#262626"/>
<path d="M17.45 12.1548C17.45 11.4548 16.9 10.9048 16.2 10.9048C15.5 10.9048 14.95 11.4548 14.95 12.1548C14.95 12.8548 15.5 13.4048 16.2 13.4048C16.9 13.4048 17.45 12.8548 17.45 12.1548ZM6.55005 12.1548C6.55005 11.4548 7.10005 10.9048 7.80005 10.9048C8.50005 10.9048 9.05005 11.4548 9.05005 12.1548C9.05005 12.8548 8.50005 13.4048 7.80005 13.4048C7.10005 13.4048 6.55005 12.8548 6.55005 12.1548ZM12 18.8048C9.40005 18.8048 8.00005 17.0548 7.90005 16.9548C7.65005 16.6548 7.70005 16.1548 8.00005 15.9048C8.30005 15.6548 8.80005 15.7048 9.05005 16.0048C9.10005 16.0548 10.1 17.2548 11.95 17.2548C13.8 17.2548 14.85 16.0048 14.85 16.0048C15.1 15.7048 15.6 15.6548 15.9 15.9048C16.2 16.1548 16.25 16.6548 16 16.9548C16 17.0548 14.6 18.8048 12 18.8048Z" fill="#262626"/>
</g>
<defs>
<clipPath id="clip0_972_2307">
<rect width="24" height="24" fill="white" transform="translate(0 0.154785)"/>
</clipPath>
</defs>
</svg>
