<svg width="22" height="22" viewBox="0 0 22 22" fill="none" xmlns="http://www.w3.org/2000/svg">
<g id="Icons/Home-fill" clip-path="url(#clip0_972_2232)">
<path id="Vector" d="M20.8541 22H13.7958C13.4291 22 13.1083 21.6791 13.1083 21.3125V15.675C13.1083 14.4833 12.1458 13.5666 11 13.5666C9.85415 13.5666 8.89165 14.5291 8.89165 15.675V21.3125C8.89165 21.6791 8.57081 22 8.20415 22H1.14581C0.779146 22 0.458313 21.6791 0.458313 21.3125V10.5416C0.458313 10.3583 0.54998 10.175 0.641646 10.0375L10.4958 0.183301C10.7708 -0.0916992 11.2291 -0.0916992 11.4583 0.183301L21.3125 10.0375C21.45 10.175 21.4958 10.3583 21.4958 10.5416V21.3125C21.5416 21.6791 21.2208 22 20.8541 22Z" fill="#262626"/>
</g>
<defs>
<clipPath id="clip0_972_2232">
<rect width="22" height="22" fill="white"/>
</clipPath>
</defs>
</svg>
