<svg width="24" height="25" viewBox="0 0 24 25" fill="none" xmlns="http://www.w3.org/2000/svg">
<g id="Icons/L&#196;&#176;ke">
<path id="Vector" d="M17.3 3.20459C20.15 3.20459 22.5 5.80459 22.5 8.95459C22.5 12.3546 19.55 14.4546 16.75 16.9546C13.95 19.4546 12.5 20.8046 12 21.1046C11.45 20.7546 9.65 19.1046 7.25 16.9546C4.4 14.4546 1.5 12.3546 1.5 8.95459C1.5 5.80459 3.85 3.20459 6.7 3.20459C8.8 3.20459 9.95 4.20459 10.75 5.35459C11.7 6.65459 11.85 7.30459 12 7.30459C12.15 7.30459 12.3 6.65459 13.25 5.35459C14.05 4.20459 15.2 3.20459 17.3 3.20459ZM17.3 1.70459C15.05 1.70459 13.35 2.60459 12 4.50459C10.65 2.65459 8.95 1.75459 6.7 1.75459C3 1.70459 0 4.95459 0 8.95459C0 12.6046 2.7 14.9546 5.3 17.2046C5.6 17.4546 5.95 17.7546 6.25 18.0546L7.4 19.0546C9.6 21.0046 10.7 22.0046 11.2 22.3046C11.45 22.4546 11.75 22.5546 12 22.5546C12.3 22.5546 12.55 22.4546 12.8 22.3046C13.3 22.0046 14.2 21.2046 16.7 18.9046L17.7 18.0046C18.05 17.7046 18.35 17.4046 18.7 17.1546C21.35 14.9546 24 12.6546 24 8.95459C24 4.95459 21 1.70459 17.3 1.70459Z" fill="#262626"/>
</g>
</svg>
