<svg width="24" height="25" viewBox="0 0 24 25" fill="none" xmlns="http://www.w3.org/2000/svg">
<g id="Icons/More">
<path id="Vector" d="M12 13.6548C12.8284 13.6548 13.5 12.9832 13.5 12.1548C13.5 11.3264 12.8284 10.6548 12 10.6548C11.1716 10.6548 10.5 11.3264 10.5 12.1548C10.5 12.9832 11.1716 13.6548 12 13.6548Z" fill="#262626"/>
<path id="Vector_2" d="M6.5 13.6548C7.32843 13.6548 8 12.9832 8 12.1548C8 11.3264 7.32843 10.6548 6.5 10.6548C5.67157 10.6548 5 11.3264 5 12.1548C5 12.9832 5.67157 13.6548 6.5 13.6548Z" fill="#262626"/>
<path id="Vector_3" d="M17.5 13.6548C18.3284 13.6548 19 12.9832 19 12.1548C19 11.3264 18.3284 10.6548 17.5 10.6548C16.6716 10.6548 16 11.3264 16 12.1548C16 12.9832 16.6716 13.6548 17.5 13.6548Z" fill="#262626"/>
</g>
</svg>
