<svg width="24" height="25" viewBox="0 0 24 25" fill="none" xmlns="http://www.w3.org/2000/svg">
<g id="Icons/Save" clip-path="url(#clip0_972_2704)">
<path id="Vector" d="M21.75 24.1548C21.55 24.1548 21.35 24.0548 21.2 23.9548L12 14.6548L2.8 23.9548C2.6 24.1548 2.25 24.2548 2 24.1048C1.7 24.0048 1.5 23.7048 1.5 23.4048V0.904785C1.5 0.504785 1.85 0.154785 2.25 0.154785H21.75C22.15 0.154785 22.5 0.504785 22.5 0.904785V23.4048C22.5 23.7048 22.3 24.0048 22.05 24.1048C21.95 24.1548 21.85 24.1548 21.75 24.1548ZM12 13.1548C12.4 13.1548 12.8 13.3048 13.1 13.6048L21 21.6048V1.65479H3V21.6048L10.9 13.6048C11.2 13.3048 11.6 13.1548 12 13.1548Z" fill="#262626"/>
</g>
<defs>
<clipPath id="clip0_972_2704">
<rect width="24" height="24" fill="white" transform="translate(0 0.154785)"/>
</clipPath>
</defs>
</svg>
