<svg width="24" height="25" viewBox="0 0 24 25" fill="none" xmlns="http://www.w3.org/2000/svg">
<g id="Icons/SharePosts" clip-path="url(#clip0_972_2700)">
<path id="Vector" d="M23.9 2.05479C23.75 1.80479 23.5 1.65479 23.25 1.65479H0.75C0.45 1.70479 0.15 1.90479 0.05 2.15479C-0.05 2.40479 0 2.75479 0.2 3.00479L8.15 10.8048L10.9 22.1048C10.95 22.4048 11.2 22.6048 11.5 22.6548H11.6C11.85 22.6548 12.1 22.5048 12.25 22.3048L23.85 2.80479C24.05 2.60479 24.05 2.30479 23.9 2.05479ZM2.6 3.20479H20.35L9 9.50479L2.6 3.20479ZM11.95 20.0048L9.75 10.8048L21.2 4.45479L11.95 20.0048Z" fill="#262626"/>
</g>
<defs>
<clipPath id="clip0_972_2700">
<rect width="24" height="24" fill="white" transform="translate(0 0.154785)"/>
</clipPath>
</defs>
</svg>
