<svg width="12" height="12" viewBox="0 0 12 12" fill="none" xmlns="http://www.w3.org/2000/svg">
<g id="Icons/Tagged" clip-path="url(#clip0_972_2074)">
<path id="Vector" d="M10.375 1.3748H7.6C7.475 1.3748 7.35 1.3248 7.25 1.2248L6.25 0.224805C6.1 0.0748047 5.875 0.0748047 5.725 0.224805L4.725 1.2248C4.625 1.3248 4.5 1.3748 4.375 1.3748H1.625C0.8 1.3748 0.125 2.0498 0.125 2.8748V10.3748C0.125 11.1998 0.8 11.8748 1.625 11.8748H10.375C11.2 11.8748 11.875 11.1998 11.875 10.3748V2.8748C11.875 2.0498 11.2 1.3748 10.375 1.3748ZM3.025 11.1248C2.875 11.1248 2.75 10.9748 2.775 10.8248C2.95 10.0248 3.65 9.4248 4.475 9.4248H7.475C8.325 9.4248 9.025 10.0248 9.175 10.8248C9.2 10.9748 9.075 11.1248 8.925 11.1248H3.025ZM11.125 10.3748C11.125 10.7998 10.8 11.1248 10.375 11.1248H10.225C10.1 11.1248 10 11.0248 9.975 10.8998C9.825 9.6498 8.775 8.6748 7.5 8.6748H4.5C3.225 8.6748 2.15 9.6498 2.025 10.8998C2 11.0248 1.9 11.1248 1.775 11.1248H1.625C1.2 11.1248 0.875 10.7998 0.875 10.3748V2.8748C0.875 2.4498 1.2 2.1248 1.625 2.1248H4.4C4.725 2.1248 5.05 1.9998 5.275 1.7498L6 1.0248L6.725 1.7498C6.95 1.9748 7.275 2.1248 7.6 2.1248H10.375C10.8 2.1248 11.125 2.4498 11.125 2.8748V10.3748ZM6 3.1248C4.675 3.1248 3.6 4.1998 3.6 5.5248C3.6 6.8498 4.675 7.9248 6 7.9248C7.325 7.9248 8.4 6.8498 8.4 5.5248C8.4 4.1998 7.325 3.1248 6 3.1248ZM6 7.1498C5.1 7.1498 4.35 6.4248 4.35 5.4998C4.35 4.5998 5.075 3.8498 6 3.8498C6.925 3.8498 7.65 4.5748 7.65 5.4998C7.65 6.3998 6.9 7.1498 6 7.1498Z" fill="#8E8E8E"/>
</g>
<defs>
<clipPath id="clip0_972_2074">
<rect width="12" height="12" fill="white"/>
</clipPath>
</defs>
</svg>
