<svg width="60" height="12" viewBox="0 0 60 12" fill="none" xmlns="http://www.w3.org/2000/svg">
<rect width="60" height="12" fill="#1E1E1E"/>
<rect width="1440" height="1024" transform="translate(-289 -556)" fill="#F9F9F9"/>
<path d="M-27.5 -461C-27.5 -462.381 -26.3807 -463.5 -25 -463.5H191.5V182.5H-25C-26.3807 182.5 -27.5 181.381 -27.5 180V-461Z" fill="white" stroke="#EFEFEF"/>
<path d="M-27.5 -56.5H191.5V182.5H-25C-26.3807 182.5 -27.5 181.381 -27.5 180V-56.5Z" fill="white" stroke="#EFEFEF"/>
<g clip-path="url(#clip0_27_4357)">
<path d="M21.8569 0.385498H24.1139L27.9515 7.32738L31.789 0.385498H33.9971V11.7923H32.1557V3.04986L28.7906 9.10362H27.0634L23.6983 3.04986V11.7923H21.8569V0.385498ZM39.9365 11.996C39.0836 11.996 38.3341 11.8072 37.6878 11.4298C37.0414 11.0523 36.5375 10.5293 36.1764 9.86142C35.8151 9.19314 35.6346 8.42742 35.6346 7.56366C35.6346 6.68922 35.811 5.9151 36.1642 5.24166C36.5172 4.5681 37.0074 4.04118 37.6348 3.6609C38.2622 3.28074 38.9833 3.09054 39.798 3.09054C40.6073 3.09054 41.304 3.28206 41.8879 3.66498C42.4717 4.0479 42.9212 4.5843 43.2364 5.27418C43.5512 5.96406 43.7089 6.77322 43.7089 7.70214V8.20734H37.4597C37.5737 8.90262 37.8547 9.44982 38.3029 9.84894C38.7511 10.2483 39.3173 10.4479 40.0018 10.4479C40.5503 10.4479 41.0228 10.3664 41.4194 10.2034C41.8158 10.0405 42.1879 9.79338 42.5357 9.46206L43.5133 10.6597C42.541 11.5507 41.3488 11.996 39.9365 11.996ZM41.281 5.2293C40.8952 4.83558 40.39 4.63854 39.7655 4.63854C39.1571 4.63854 38.6478 4.83966 38.2378 5.24154C37.8276 5.64354 37.5682 6.18402 37.4597 6.86298H41.9408C41.8865 6.1677 41.6665 5.62326 41.281 5.2293ZM45.9415 4.80162H44.2468V3.2943H45.9415V0.801058H47.7178V3.2943H50.2924V4.80162H47.7178V8.6229C47.7178 9.2583 47.8264 9.7119 48.0437 9.98346C48.2608 10.2551 48.633 10.3909 49.1599 10.3909C49.3933 10.3909 49.5917 10.3815 49.7546 10.3624C49.9345 10.341 50.1138 10.3151 50.2924 10.2849V11.7759C50.0914 11.8357 49.8647 11.8846 49.6121 11.9227C49.3491 11.9613 49.0835 11.9804 48.8177 11.9797C46.9002 11.9797 45.9415 10.9315 45.9415 8.8347V4.80162ZM59.5483 11.7923H57.8047V10.6028C57.4951 11.0482 57.1013 11.3918 56.6233 11.6333C56.1454 11.875 55.6021 11.996 54.9938 11.996C54.2442 11.996 53.5802 11.8045 53.0017 11.4215C52.4232 11.0386 51.9683 10.5118 51.637 9.8409C51.3056 9.1701 51.1399 8.40294 51.1399 7.5393C51.1399 6.67014 51.3083 5.90154 51.6451 5.23338C51.9818 4.56534 52.4477 4.04118 53.0425 3.6609C53.6372 3.28074 54.3203 3.09054 55.0915 3.09054C55.6728 3.09054 56.1942 3.20334 56.656 3.4287C57.1114 3.64903 57.5059 3.97776 57.8047 4.38606V3.2943H59.5483V11.7923ZM57.7722 6.26814C57.582 5.78478 57.282 5.4033 56.8718 5.12334C56.4617 4.84374 55.9878 4.70382 55.4501 4.70382C54.6895 4.70382 54.084 4.95918 53.6332 5.46966C53.1822 5.98026 52.957 6.67014 52.957 7.53918C52.957 8.41386 53.174 9.10638 53.6087 9.61686C54.0432 10.1275 54.6325 10.3827 55.3768 10.3827C55.9253 10.3827 56.4142 10.2416 56.8434 9.9591C57.2724 9.67674 57.582 9.29646 57.7722 8.81838V6.26814Z" fill="#1C2B33"/>
<path d="M12.96 0C11.4792 0 10.3218 1.11528 9.27408 2.532C7.83408 0.69852 6.63 0 5.1888 0C2.2512 0 0 3.82344 0 7.87032C0 10.4028 1.2252 12 3.2772 12C4.75416 12 5.8164 11.3036 7.70484 8.0028C7.70484 8.0028 8.49204 6.61272 9.03348 5.65512C9.22332 5.96148 9.42264 6.29112 9.63312 6.64548L10.5187 8.13516C12.2436 11.0218 13.2046 12 14.9461 12C16.9452 12 18.0578 10.381 18.0578 7.79592C18.058 3.55872 15.7561 0 12.96 0ZM6.26484 7.10892C4.73376 9.50892 4.2042 10.0469 3.35172 10.0469C2.47452 10.0469 1.95312 9.27672 1.95312 7.90344C1.95312 4.96548 3.41796 1.9614 5.1642 1.9614C6.1098 1.9614 6.9 2.5074 8.11044 4.24032C6.96108 6.00324 6.26484 7.10892 6.26484 7.10892ZM12.0432 6.80688L10.9844 5.04108C10.7182 4.60639 10.4428 4.17737 10.1584 3.75432C11.1126 2.28144 11.8997 1.54752 12.8359 1.54752C14.7806 1.54752 16.3366 4.41108 16.3366 7.92828C16.3366 9.26892 15.8975 10.0469 14.9876 10.0469C14.1155 10.0469 13.699 9.47088 12.0432 6.80688Z" fill="#0180FA"/>
<path d="M17.4703 4.19995H15.6792C16.0934 5.24947 16.3366 6.53779 16.3366 7.92823C16.3366 9.26887 15.8975 10.0468 14.9876 10.0468C14.8188 10.0468 14.667 10.0252 14.52 9.97111V11.9784C14.6572 11.993 14.7989 12 14.9462 12C16.9453 12 18.058 10.3809 18.058 7.79587C18.058 6.50743 17.8451 5.28187 17.4703 4.19995Z" fill="url(#paint0_linear_27_4357)"/>
<path d="M5.18892 0C5.2194 0 5.24976 0.00036 5.28 0.00096V1.96416C5.2416 1.96236 5.20296 1.9614 5.1642 1.9614C3.46224 1.9614 2.02752 4.81524 1.95588 7.68H0.00168085C0.0708008 3.7044 2.29716 0 5.1888 0H5.18892Z" fill="url(#paint1_linear_27_4357)"/>
<path d="M5.18892 0C6.52716 0 7.66104 0.6024 8.96916 2.15652C9.33696 2.61588 9.78048 3.21312 10.2551 3.90336L10.2571 3.90636L10.2601 3.906C10.5084 4.27997 10.7498 4.6584 10.9844 5.04108L12.0432 6.80688C13.699 9.47088 14.1155 10.0469 14.9876 10.0469H15V11.9996C14.9821 11.9999 14.9642 12 14.9462 12C13.2047 12 12.2436 11.0218 10.5186 8.13516L9.633 6.64548C9.54182 6.49178 9.45006 6.33842 9.35772 6.1854L9.36 6.18C8.7 5.1 8.28 4.44 7.92 3.96L7.914 3.96456C6.8124 2.44896 6.0576 1.9614 5.16408 1.9614H5.16V0H5.18892Z" fill="url(#paint2_linear_27_4357)"/>
</g>
<defs>
<linearGradient id="paint0_linear_27_4357" x1="15" y1="11.64" x2="19.226" y2="6.89215" gradientUnits="userSpaceOnUse">
<stop offset="0.21" stop-color="#0278F1"/>
<stop offset="0.533" stop-color="#0180FA"/>
</linearGradient>
<linearGradient id="paint1_linear_27_4357" x1="5.28" y1="0.6" x2="5.9293e-07" y2="7.68" gradientUnits="userSpaceOnUse">
<stop offset="0.427" stop-color="#0165E0"/>
<stop offset="0.917" stop-color="#0180FA"/>
</linearGradient>
<linearGradient id="paint2_linear_27_4357" x1="3.42" y1="3.48" x2="16.2" y2="8.64" gradientUnits="userSpaceOnUse">
<stop stop-color="#0064E0"/>
<stop offset="0.656" stop-color="#0066E2"/>
<stop offset="1" stop-color="#0278F1"/>
</linearGradient>
<clipPath id="clip0_27_4357">
<rect width="60" height="12" fill="white"/>
</clipPath>
</defs>
</svg>
